<?xml version="1.0" standalone="no"?>
<!DOCTYPE svg PUBLIC "-//W3C//DTD SVG 20010904//EN"
 "http://www.w3.org/TR/2001/REC-SVG-20010904/DTD/svg10.dtd">
<svg version="1.0" xmlns="http://www.w3.org/2000/svg"
 width="1600.000000pt" height="1600.000000pt" viewBox="0 0 1600.000000 1600.000000"
 preserveAspectRatio="xMidYMid meet">
<metadata>
Created by potrace 1.11, written by Peter Selinger 2001-2013
</metadata>
<g transform="translate(0.000000,1600.000000) scale(0.100000,-0.100000)"
fill="#000000" stroke="none">
<path d="M7849 15686 c-2 -2 -24 -7 -48 -10 -104 -14 -200 -47 -370 -128 -58
-27 -122 -56 -141 -63 -19 -7 -98 -43 -175 -80 -269 -129 -371 -178 -470 -225
-55 -26 -156 -74 -225 -107 -206 -99 -359 -172 -470 -225 -58 -28 -166 -80
-240 -116 -74 -35 -171 -82 -215 -102 -44 -21 -147 -70 -230 -110 -82 -40
-190 -91 -240 -115 -49 -23 -153 -73 -230 -110 -166 -80 -336 -161 -460 -220
-49 -24 -146 -70 -215 -103 -69 -33 -177 -84 -240 -115 -63 -30 -173 -83 -245
-117 -71 -34 -175 -84 -230 -110 -55 -26 -161 -77 -235 -113 -74 -35 -173 -83
-220 -105 -253 -119 -564 -270 -926 -449 -217 -107 -369 -249 -488 -456 -62
-109 -100 -228 -160 -502 -19 -89 -221 -969 -242 -1055 -9 -36 -18 -74 -20
-85 -4 -22 -4 -19 -39 -170 -22 -95 -47 -206 -60 -268 -2 -10 -7 -27 -10 -37
-3 -10 -8 -27 -10 -37 -2 -10 -9 -40 -15 -68 -6 -27 -14 -60 -16 -73 -2 -12
-14 -62 -25 -110 -12 -48 -22 -94 -24 -102 -9 -42 -51 -225 -110 -480 -36
-157 -68 -294 -70 -305 -9 -43 -28 -125 -55 -240 -16 -66 -31 -131 -34 -145
-3 -14 -7 -34 -10 -45 -3 -11 -14 -60 -25 -110 -46 -200 -62 -271 -66 -285
-14 -59 -27 -118 -31 -138 -2 -12 -14 -62 -25 -110 -12 -48 -22 -94 -24 -102
-3 -13 -13 -55 -31 -135 -3 -11 -7 -31 -10 -45 -3 -14 -7 -33 -10 -42 -3 -9
-7 -25 -9 -35 -3 -17 -93 -409 -101 -442 -21 -91 -36 -157 -49 -216 -9 -38
-25 -108 -36 -155 -12 -47 -22 -92 -24 -100 -13 -65 -61 -274 -82 -359 -13
-57 -26 -113 -29 -125 -2 -11 -8 -43 -14 -71 -22 -107 -30 -293 -16 -362 3
-15 8 -44 11 -63 11 -69 47 -176 87 -260 36 -75 90 -166 108 -180 3 -3 17 -21
30 -40 13 -19 27 -37 30 -40 4 -3 89 -108 190 -235 101 -126 192 -239 201
-250 9 -11 46 -56 81 -100 34 -44 70 -89 80 -100 9 -11 83 -103 165 -205 141
-175 292 -364 708 -880 99 -124 273 -340 385 -480 112 -140 207 -257 210 -260
3 -3 113 -140 245 -305 132 -165 242 -302 245 -305 8 -7 401 -496 430 -535 14
-18 81 -102 150 -186 68 -85 216 -269 329 -409 113 -140 243 -302 289 -360
168 -208 313 -321 512 -400 72 -28 195 -59 270 -68 78 -8 6229 -7 6327 1 138
13 253 46 389 113 154 76 269 174 409 349 22 28 45 57 52 65 7 8 83 103 169
210 150 187 183 229 237 295 14 17 44 55 69 85 62 78 450 562 465 580 7 8 37
47 68 85 31 39 64 79 73 90 10 11 125 155 257 320 132 165 242 302 245 305 3
3 96 118 205 255 110 138 202 252 205 255 3 3 23 28 45 55 59 73 69 86 80 99
6 6 80 99 165 206 85 107 157 197 160 200 4 4 294 364 380 473 8 11 20 24 25
31 6 6 130 160 275 341 145 182 321 400 391 486 192 236 250 316 296 404 39
76 88 206 98 264 2 14 9 49 14 76 12 64 12 243 0 320 -6 33 -28 139 -50 235
-23 96 -43 186 -45 200 -3 14 -14 59 -24 100 -10 41 -21 86 -24 100 -2 14 -39
174 -80 355 -42 182 -85 371 -97 420 -11 50 -24 106 -29 125 -5 19 -13 55 -19
80 -6 25 -20 85 -31 134 -12 49 -37 160 -56 245 -20 86 -37 164 -40 173 -2 10
-6 26 -8 35 -2 10 -18 79 -35 153 -17 74 -44 194 -61 265 -32 139 -78 337 -85
370 -11 56 -16 75 -29 130 -26 106 -54 227 -86 365 -16 74 -39 176 -51 225
-11 50 -22 97 -24 105 -2 8 -31 134 -65 280 -34 146 -63 276 -66 290 -3 14 -7
33 -10 42 -3 9 -7 25 -9 35 -2 10 -13 61 -25 113 -12 52 -30 132 -40 177 -10
44 -24 101 -30 125 -7 23 -14 54 -16 68 -5 29 -38 170 -65 280 -10 41 -20 86
-23 100 -6 31 -30 135 -96 420 -28 124 -54 235 -56 247 -6 33 -54 163 -72 198
-9 17 -16 33 -17 37 -1 18 -131 200 -177 247 -58 60 -164 146 -218 179 -38 23
-166 87 -300 150 -56 26 -104 58 -140 93 -43 42 -87 68 -210 127 -85 40 -186
88 -225 107 -38 18 -115 54 -170 80 -136 64 -212 100 -399 189 -87 42 -160 76
-161 76 -2 0 -74 34 -160 75 -86 41 -177 85 -203 96 -26 12 -101 47 -167 79
-66 32 -187 89 -270 128 -82 39 -204 96 -270 127 -66 31 -145 68 -175 82 -30
15 -124 59 -209 100 -84 40 -155 73 -156 73 -3 0 -140 65 -370 175 -38 19
-113 54 -165 78 -52 25 -140 66 -195 92 -55 26 -131 62 -170 80 -38 18 -137
65 -219 104 -82 39 -150 71 -151 71 -2 0 -65 30 -142 66 -150 72 -251 120
-383 182 -47 22 -139 66 -205 97 -66 31 -152 65 -191 75 -40 10 -98 32 -130
48 -85 42 -191 83 -255 98 -31 7 -69 16 -85 20 -32 7 -318 16 -325 10z"/>
</g>
</svg>
